<svg width="250" height="80" viewBox="0 0 250 80" fill="none" xmlns="http://www.w3.org/2000/svg">
<g clip-path="url(#clip0_1_2)">
<path d="M28.816 62.96C27.792 62.96 26.624 62.832 25.312 62.576C24 62.352 22.752 62 21.568 61.52C20.384 61.008 19.424 60.384 18.688 59.648L19.792 54.608C20.912 56.176 22.192 57.344 23.632 58.112C25.072 58.88 26.528 59.376 28 59.6C29.504 59.792 30.864 59.824 32.08 59.696C33.04 59.184 33.744 58.464 34.192 57.536C34.64 56.608 34.864 55.696 34.864 54.8C34.864 53.68 34.56 52.736 33.952 51.968C33.344 51.2 32.496 50.512 31.408 49.904C30.352 49.296 29.104 48.656 27.664 47.984C26.288 47.312 24.928 46.592 23.584 45.824C22.24 45.024 21.12 44.048 20.224 42.896C19.328 41.712 18.88 40.256 18.88 38.528C18.88 36.64 19.408 35.056 20.464 33.776C21.552 32.464 22.944 31.488 24.64 30.848C26.368 30.176 28.176 29.84 30.064 29.84C31.088 29.84 32.08 29.92 33.04 30.08C34.032 30.24 34.944 30.432 35.776 30.656C36.608 30.88 37.344 31.104 37.984 31.328L35.536 36.032C34.224 34.624 32.672 33.728 30.88 33.344C29.088 32.96 27.344 32.896 25.648 33.152C24.88 33.6 24.304 34.24 23.92 35.072C23.536 35.872 23.344 36.688 23.344 37.52C23.344 38.576 23.648 39.472 24.256 40.208C24.896 40.912 25.744 41.568 26.8 42.176C27.888 42.752 29.12 43.36 30.496 44C32 44.704 33.424 45.472 34.768 46.304C36.144 47.104 37.264 48.096 38.128 49.28C38.992 50.432 39.424 51.92 39.424 53.744C39.424 55.696 38.912 57.36 37.888 58.736C36.896 60.112 35.6 61.168 34 61.904C32.4 62.608 30.672 62.96 28.816 62.96ZM22.672 59.648H18.688C18.656 59.104 18.64 58.384 18.64 57.488C18.64 56.592 18.688 55.616 18.784 54.56C18.88 53.504 19.008 52.496 19.168 51.536H21.76L22.672 59.648ZM34.912 39.44L34.144 32.24L37.984 31.328C38.048 31.84 38.064 32.56 38.032 33.488C38.032 34.384 37.984 35.36 37.888 36.416C37.824 37.44 37.696 38.448 37.504 39.44H34.912ZM59.4243 62.72C59.0723 62.688 58.6403 62.464 58.1283 62.048C57.6163 61.664 57.1363 61.168 56.6883 60.56C56.2403 59.952 55.9363 59.344 55.7763 58.736V58.064V46.688C55.7763 45.184 55.6003 44.064 55.2483 43.328C54.8963 42.56 54.2883 41.968 53.4243 41.552C52.5283 41.584 51.5523 41.68 50.4963 41.84C49.4723 42 48.6403 42.176 48.0003 42.368L47.6163 47.36L45.0723 47.552C44.6563 46.752 44.3363 45.84 44.1123 44.816C43.8883 43.792 43.7443 42.784 43.6803 41.792C44.4163 41.376 45.2803 40.976 46.2723 40.592C47.2963 40.176 48.3363 39.808 49.3923 39.488C50.4483 39.136 51.4243 38.864 52.3203 38.672C53.2163 38.448 53.9043 38.336 54.3843 38.336C55.0883 38.336 55.7763 38.528 56.4483 38.912C57.1523 39.264 57.7763 39.712 58.3203 40.256C58.8963 40.768 59.2963 41.248 59.5203 41.696C59.7443 42.112 59.8883 42.624 59.9523 43.232C60.0483 43.84 60.0963 44.992 60.0963 46.688V57.872C60.0963 58.224 60.2083 58.48 60.4323 58.64C60.6883 58.768 60.9923 58.832 61.3443 58.832C61.6963 58.832 62.0643 58.784 62.4483 58.688C62.8643 58.592 63.2323 58.496 63.5523 58.4L64.2723 60.512L59.4243 62.72ZM50.5923 62.672C48.8323 62.864 47.3923 62.672 46.2723 62.096C45.1843 61.52 44.3683 60.768 43.8242 59.84C43.3123 58.88 43.0563 57.936 43.0563 57.008C43.0563 56.08 43.3123 55.168 43.8242 54.272C44.3683 53.344 45.2323 52.544 46.4163 51.872L56.9763 51.584L56.7843 54.176L56.0163 54.128C55.1203 54.032 54.1763 54 53.1843 54.032C52.2243 54.032 51.3123 54.128 50.4483 54.32C49.6163 54.48 48.9283 54.784 48.3843 55.232C47.8403 55.648 47.5683 56.24 47.5683 57.008C47.5683 57.424 47.6643 57.84 47.8563 58.256C48.0803 58.64 48.4003 58.96 48.8163 59.216C49.7443 59.248 50.7043 59.136 51.6963 58.88C52.6883 58.624 53.6003 58.32 54.4323 57.968C55.2963 57.616 55.9683 57.328 56.4483 57.104V59.12L50.5923 62.672ZM69.8804 62V28.496L72.2324 26.72L74.1524 28.4V62H69.8804ZM84.5204 62V47.792C84.5204 45.84 84.2164 44.496 83.6084 43.76C83.0004 42.992 82.2804 42.608 81.4484 42.608C80.8084 42.608 80.0404 42.8 79.1444 43.184C78.2804 43.536 77.3844 43.984 76.4564 44.528C75.5284 45.072 74.6804 45.648 73.9124 46.256L73.0484 44.24C74.5524 43.184 76.0084 42.256 77.4164 41.456C78.8564 40.624 80.1204 39.968 81.2084 39.488C82.3284 39.008 83.1764 38.768 83.7524 38.768C84.3604 38.864 84.9524 39.088 85.5284 39.44C86.1044 39.792 86.6164 40.192 87.0644 40.64C87.5444 41.088 87.8964 41.536 88.1204 41.984C88.2804 42.272 88.4084 42.64 88.5044 43.088C88.6004 43.536 88.6644 44.128 88.6964 44.864C88.7604 45.568 88.7924 46.48 88.7924 47.6V62H84.5204ZM66.2804 30.464L65.7044 28.208C66.6644 27.76 67.7364 27.408 68.9204 27.152C70.1364 26.896 71.2404 26.752 72.2324 26.72L72.8564 27.92L70.7444 30.128L66.2804 30.464ZM66.5684 62L66.3284 60.416C66.9044 60.128 67.6724 59.824 68.6324 59.504C69.6244 59.184 70.4244 58.944 71.0324 58.784L70.3604 62H66.5684ZM72.5204 62L72.5684 58.784C73.4004 58.848 74.2484 58.96 75.1124 59.12C76.0084 59.248 76.7284 59.44 77.2724 59.696L76.9844 62H72.5204ZM82.0244 62L81.7844 60.416C82.3604 60.128 83.1284 59.824 84.0884 59.504C85.0804 59.184 85.8804 58.944 86.4884 58.784L85.8164 62H82.0244ZM87.4964 62L87.5444 58.784C88.3764 58.848 89.2244 58.96 90.0884 59.12C90.9844 59.248 91.7044 59.44 92.2484 59.696L91.9604 62H87.4964ZM111.268 62.72C110.916 62.688 110.484 62.464 109.972 62.048C109.46 61.664 108.98 61.168 108.532 60.56C108.084 59.952 107.78 59.344 107.62 58.736V58.064V46.688C107.62 45.184 107.444 44.064 107.092 43.328C106.74 42.56 106.132 41.968 105.268 41.552C104.372 41.584 103.396 41.68 102.34 41.84C101.316 42 100.484 42.176 99.844 42.368L99.46 47.36L96.916 47.552C96.5 46.752 96.18 45.84 95.956 44.816C95.732 43.792 95.588 42.784 95.524 41.792C96.26 41.376 97.124 40.976 98.116 40.592C99.14 40.176 100.18 39.808 101.236 39.488C102.292 39.136 103.268 38.864 104.164 38.672C105.06 38.448 105.748 38.336 106.228 38.336C106.932 38.336 107.62 38.528 108.292 38.912C108.996 39.264 109.62 39.712 110.164 40.256C110.74 40.768 111.14 41.248 111.364 41.696C111.588 42.112 111.732 42.624 111.796 43.232C111.892 43.84 111.94 44.992 111.94 46.688V57.872C111.94 58.224 112.052 58.48 112.276 58.64C112.532 58.768 112.836 58.832 113.188 58.832C113.54 58.832 113.908 58.784 114.292 58.688C114.708 58.592 115.076 58.496 115.396 58.4L116.116 60.512L111.268 62.72ZM102.436 62.672C100.676 62.864 99.236 62.672 98.116 62.096C97.028 61.52 96.212 60.768 95.668 59.84C95.156 58.88 94.9 57.936 94.9 57.008C94.9 56.08 95.156 55.168 95.668 54.272C96.212 53.344 97.076 52.544 98.26 51.872L108.82 51.584L108.628 54.176L107.86 54.128C106.964 54.032 106.02 54 105.028 54.032C104.068 54.032 103.156 54.128 102.292 54.32C101.46 54.48 100.772 54.784 100.228 55.232C99.684 55.648 99.412 56.24 99.412 57.008C99.412 57.424 99.508 57.84 99.7 58.256C99.924 58.64 100.244 58.96 100.66 59.216C101.588 59.248 102.548 59.136 103.54 58.88C104.532 58.624 105.444 58.32 106.276 57.968C107.14 57.616 107.812 57.328 108.292 57.104V59.12L102.436 62.672ZM120.835 72.416L118.435 68.048C120.131 67.312 121.731 66.496 123.235 65.6C124.739 64.704 126.115 63.568 127.363 62.192C126.947 62.032 126.499 61.824 126.019 61.568C125.571 61.312 125.171 61.024 124.819 60.704L117.331 40.064L122.083 39.536L126.691 53.264L127.507 58.784H128.419C129.091 56.96 129.763 54.928 130.435 52.688C131.139 50.448 131.779 48.192 132.355 45.92C132.931 43.616 133.411 41.488 133.795 39.536H138.307C137.699 41.648 137.027 43.872 136.291 46.208C135.555 48.512 134.803 50.8 134.035 53.072C133.267 55.312 132.531 57.392 131.827 59.312C131.091 61.04 130.227 62.688 129.235 64.256C128.243 65.824 127.059 67.28 125.683 68.624C124.339 70 122.723 71.264 120.835 72.416ZM121.219 42.224L115.411 41.888L115.459 39.536H122.131L121.219 42.224ZM121.075 42.944L121.747 39.536H125.539L125.827 41.264C125.059 41.584 124.275 41.888 123.475 42.176C122.707 42.432 121.907 42.688 121.075 42.944ZM136.195 42.224L130.387 41.888L130.435 39.536H137.107L136.195 42.224ZM135.763 42.944L136.435 39.536H140.227L140.515 41.264C139.747 41.584 138.963 41.888 138.163 42.176C137.395 42.432 136.595 42.688 135.763 42.944ZM157.862 62.72C157.51 62.688 157.078 62.464 156.566 62.048C156.054 61.664 155.574 61.168 155.126 60.56C154.678 59.952 154.374 59.344 154.214 58.736V58.064V46.688C154.214 45.184 154.038 44.064 153.686 43.328C153.334 42.56 152.726 41.968 151.862 41.552C150.966 41.584 149.99 41.68 148.934 41.84C147.91 42 147.078 42.176 146.438 42.368L146.054 47.36L143.51 47.552C143.094 46.752 142.774 45.84 142.55 44.816C142.326 43.792 142.182 42.784 142.118 41.792C142.854 41.376 143.718 40.976 144.71 40.592C145.734 40.176 146.774 39.808 147.83 39.488C148.886 39.136 149.862 38.864 150.758 38.672C151.654 38.448 152.342 38.336 152.822 38.336C153.526 38.336 154.214 38.528 154.886 38.912C155.59 39.264 156.214 39.712 156.758 40.256C157.334 40.768 157.734 41.248 157.958 41.696C158.182 42.112 158.326 42.624 158.39 43.232C158.486 43.84 158.534 44.992 158.534 46.688V57.872C158.534 58.224 158.646 58.48 158.87 58.64C159.126 58.768 159.43 58.832 159.782 58.832C160.134 58.832 160.502 58.784 160.886 58.688C161.302 58.592 161.67 58.496 161.99 58.4L162.71 60.512L157.862 62.72ZM149.03 62.672C147.27 62.864 145.83 62.672 144.71 62.096C143.622 61.52 142.806 60.768 142.262 59.84C141.75 58.88 141.494 57.936 141.494 57.008C141.494 56.08 141.75 55.168 142.262 54.272C142.806 53.344 143.67 52.544 144.854 51.872L155.414 51.584L155.222 54.176L154.454 54.128C153.558 54.032 152.614 54 151.622 54.032C150.662 54.032 149.75 54.128 148.886 54.32C148.054 54.48 147.366 54.784 146.822 55.232C146.278 55.648 146.006 56.24 146.006 57.008C146.006 57.424 146.102 57.84 146.294 58.256C146.518 58.64 146.838 58.96 147.254 59.216C148.182 59.248 149.142 59.136 150.134 58.88C151.126 58.624 152.038 58.32 152.87 57.968C153.734 57.616 154.406 57.328 154.886 57.104V59.12L149.03 62.672ZM168.318 62V28.496L170.67 26.72L172.59 28.4V62H168.318ZM169.566 53.552L169.23 52.64L176.238 48.752L183.294 40.496L185.502 38.768L186.99 41.168L177.294 52.4L169.566 53.552ZM184.494 62.72C183.758 62.56 183.15 62.256 182.67 61.808C182.19 61.328 181.646 60.64 181.038 59.744L175.422 51.104L178.926 49.28L185.262 58.4C185.486 58.72 185.838 58.88 186.318 58.88C186.83 58.88 187.502 58.768 188.334 58.544L189.054 60.656L184.494 62.72ZM164.718 30.464L164.142 28.208C165.102 27.76 166.174 27.408 167.358 27.152C168.574 26.896 169.678 26.752 170.67 26.72L171.294 27.92L169.182 30.128L164.718 30.464ZM178.014 42.512L177.438 40.256C178.238 39.968 179.134 39.712 180.126 39.488C181.118 39.264 182.094 39.088 183.054 38.96C184.046 38.832 184.862 38.768 185.502 38.768L185.55 40.4L184.062 41.696L178.014 42.512ZM165.006 62L164.766 60.416C165.342 60.128 166.11 59.824 167.07 59.504C168.062 59.184 168.862 58.944 169.47 58.784L168.798 62H165.006ZM170.478 62L170.526 58.784C171.358 58.848 172.206 58.96 173.07 59.12C173.966 59.248 174.686 59.44 175.23 59.696L174.942 62H170.478Z" fill="#32297C"/>
<path d="M204.248 59.552C202.776 59.552 201.416 59.152 200.168 58.352C198.92 57.552 197.768 56.432 196.712 54.992C195.688 53.52 194.744 51.792 193.88 49.808C193.048 47.824 192.296 45.648 191.624 43.28L194.024 42.512C194.792 45.072 195.608 47.328 196.472 49.28C197.336 51.232 198.296 52.752 199.352 53.84C200.44 54.896 201.672 55.424 203.048 55.424C204.072 55.424 204.904 55.152 205.544 54.608C206.216 54.064 206.648 53.344 206.84 52.448C207.032 51.552 206.952 50.576 206.6 49.52C206.248 48.464 205.592 47.44 204.632 46.448L200.264 44.48V43.472H200.696C202.808 43.76 204.6 44.416 206.072 45.44C207.544 46.464 208.664 47.68 209.432 49.088C210.2 50.496 210.584 51.92 210.584 53.36C210.584 54.64 210.296 55.744 209.72 56.672C209.144 57.6 208.376 58.32 207.416 58.832C206.456 59.312 205.4 59.552 204.248 59.552ZM205.544 45.872L200.264 44.096V42.224H216.008L215.864 45.872H205.544ZM217.544 63.584L214.712 61.76V35.024L215.912 35.552L218.696 38V63.248L217.544 63.584ZM191 36.176L189.56 33.776L189.992 32.816H223.016L224.456 35.216L224.024 36.176H191ZM227.432 33.104C226.952 31.568 226.408 30.128 225.8 28.784C225.192 27.44 224.52 26.272 223.784 25.28C223.048 24.256 222.232 23.472 221.336 22.928C220.44 22.352 219.464 22.064 218.408 22.064C217.032 22.064 215.944 22.496 215.144 23.36C214.344 24.192 213.944 25.152 213.944 26.24C213.944 27.52 214.472 28.928 215.528 30.464L214.232 31.472C213.176 30.544 212.248 29.472 211.448 28.256C210.616 27.04 210.2 25.744 210.2 24.368C210.2 23.312 210.472 22.32 211.016 21.392C211.56 20.464 212.344 19.728 213.368 19.184C214.36 18.608 215.544 18.32 216.92 18.32C218.392 18.32 219.8 18.672 221.144 19.376C222.488 20.048 223.72 21.04 224.84 22.352C225.992 23.632 227.016 25.168 227.912 26.96C228.808 28.752 229.544 30.752 230.12 32.96L227.432 33.104ZM230.168 63.584L227.336 61.76V35.024L228.536 35.552L231.32 38V63.248L230.168 63.584ZM223.016 36.176L221.576 33.776L222.008 32.816H235.64L237.08 35.216L236.648 36.176H223.016Z" fill="#FFC37C"/>
</g>
<defs>
<clipPath id="clip0_1_2">
<rect width="250" height="80" fill="white"/>
</clipPath>
</defs>
</svg>
